<?xml version="1.0" encoding="UTF-8"?>
<svg id="_レイヤー_2" data-name="レイヤー 2" xmlns="http://www.w3.org/2000/svg" viewBox="0 0 62.5 62.5">
  <g id="_レイヤー_1-2" data-name="レイヤー 1">
    <g>
      <rect x="0" y="0" width="62.5" height="62.5" rx="8.38" ry="8.38" fill="#47b894"/>
      <g>
        <g id="E66wjT.tif">
          <path d="M42.62,55.97c-.34.03-.9.03-1.24,0-1.79-.16-4.72-1.82-6.18-2.79-.07-.04-.14-.07-.22-.07h-17.46s-.08-.02-.11-.03c-4.49-1.22-4.39-4.82-4.35-8.71.11-10.9-.02-21.75,0-32.64,0-2.51,1.54-5.08,5.03-5.19,0,0,.01,0,.02,0l22.66-.03s.03,0,.04,0c2.67.2,4.79,2.06,5.26,4.7,0,.02,0,.05,0,.07.14,9.94.22,19.53.5,29.43,0,.1.4.63.47.7,4.59,4.84,2.28,13.95-4.43,14.56ZM21.75,9.59c-.35,0-3.24-.07-4.07.07-.59.1-1.31.67-1.3,2.15,0,.01,0,.02,0,.03v33.6s.02.08.05.11l.06.06s.07.05.11.05h16.66c.08,0,.62-.57.44-.81-.01-.01-.02-.03-.03-.04-1-2.62-4.45-6.83-.81-8.84.72-.4,2.31-.32,3.02.14.93.6,1.44,2.28,1.78,3.28.25.71.06-.12,1.11-.08.52.02,1.02.5,1.22.77.16.21.18-.55.92-.73.38-.09.71.01,1.22.17.17.05.37-.01.46-.17h0c.27-.42.4-.72.4-1.22V12.07s.01-.04.01-.07c-.07-.46-.42-1.09-.72-1.41-.12-.13-1.11-.88-1.19-.88M44.34,41.65c-.55-.45-.76-.73-1.16-.54-.22.1-.36.68-.45.73-.06.03-.11.04-.11.04-.03,0-.07,0-.15-.07-.18-.18-.3-.49-.39-.63-.32-.52-1-.34-1.2-.02-.24.33.23.93-.49,1.2-.51.19-.64-.52-.8-.86-.2-.43-.54-1.07-1.19-.89-.02,0-.38.19-.35.87.04.74.8,1.64-.4,1.92-.09.02-.19,0-.27-.03-.23-.12-.29-.29-.33-.46,0-.04-.19-.53-.23-.62-.46-1.13-1-2.55-1.62-3.68-.24-.45-.31-.83-.89-.88-.53-.04-1.02.5-1.02.87,0,.49.21,1.02.57,1.82.64,1.42,1.13,2.87,1.77,4.32.12.27.47.79.55,1.02.15.44-.06,1.02-.45,1.27-.29.19-.91.24-1.1.06-.03-.03-.94-.66-1.34.51-.38,1.09,1.37,2.08,2.12,2.74.73.64,2.1,1.42,3.01,1.79,2.62,1.07,5.86.06,7.23-2.55.93-1.78.5-4.31.44-4.64-.02-.11-.04-.23-.08-.41-.18-.73-.41-1.18-.41-1.18-.06-.11-.1-.18-.19-.31-.59-.93-.83-1.16-1.08-1.37ZM29.15,47.96c-1.18.24-1.55,1.86-.68,2.7,1.35,1.33,3.18.05,2.62-1.63-.28-.86-1-1.27-1.94-1.08Z" fill="#fff"/>
        </g>
        <g>
          <path d="M36.79,15.5l-1.02,3.96h-16.01l2.98,10.33h10.36l-.37,1.45h-9.26v1.52h10.44l4.06-15.74h2.76v-1.52h-3.94ZM31.59,28.27v-2.92h2.66l-.75,2.92h-1.9ZM35.37,20.99l-.73,2.84h-3.05v-2.84h3.78ZM30.07,25.35v2.92h-3.01v-2.92h3.01ZM30.07,20.99v2.84h-3.01v-2.84h3.01ZM25.54,20.99v2.84h-2.93l-.82-2.84h3.75ZM25.54,25.35v2.92h-1.65l-.84-2.92h2.49Z" fill="#fff"/>
          <path d="M25.11,33.42c-1.28-.11-2.34.95-2.23,2.23.09.98.88,1.77,1.85,1.85,1.28.11,2.34-.95,2.23-2.23-.09-.98-.88-1.77-1.85-1.85ZM24.99,35.98c-.34.04-.63-.25-.59-.59.03-.23.22-.42.45-.45.34-.04.63.25.59.59-.03.23-.22.42-.45.45Z" fill="#fff"/>
          <path d="M32.32,33.5c-1.28-.11-2.34.95-2.23,2.23.09.98.87,1.77,1.85,1.85,1.28.11,2.34-.95,2.23-2.23-.09-.98-.88-1.77-1.85-1.85ZM32.2,36.07c-.34.04-.63-.25-.59-.59.03-.23.22-.42.45-.45.34-.04.63.25.59.59-.03.23-.22.42-.45.45Z" fill="#fff"/>
        </g>
      </g>
    </g>
  </g>
</svg>